<svg width="52" height="52" viewBox="0 0 52 52" fill="none" xmlns="http://www.w3.org/2000/svg">
<path d="M24.245 39H28.145V28.21H39V24.31H28.145V13H24.245V24.31H13V28.21H24.245V39ZM26 52C22.3167 52 18.8933 51.3392 15.73 50.0175C12.5667 48.6958 9.815 46.865 7.475 44.525C5.135 42.185 3.30417 39.4333 1.9825 36.27C0.660833 33.1067 0 29.6833 0 26C0 22.36 0.660833 18.9583 1.9825 15.795C3.30417 12.6317 5.135 9.88 7.475 7.54C9.815 5.2 12.5667 3.35833 15.73 2.015C18.8933 0.671667 22.3167 0 26 0C29.64 0 33.0417 0.671667 36.205 2.015C39.3683 3.35833 42.12 5.2 44.46 7.54C46.8 9.88 48.6417 12.6317 49.985 15.795C51.3283 18.9583 52 22.36 52 26C52 29.6833 51.3283 33.1067 49.985 36.27C48.6417 39.4333 46.8 42.185 44.46 44.525C42.12 46.865 39.3683 48.6958 36.205 50.0175C33.0417 51.3392 29.64 52 26 52ZM26 48.1C32.0667 48.1 37.2667 45.9333 41.6 41.6C45.9333 37.2667 48.1 32.0667 48.1 26C48.1 19.9333 45.9333 14.7333 41.6 10.4C37.2667 6.06667 32.0667 3.9 26 3.9C19.9333 3.9 14.7333 6.06667 10.4 10.4C6.06667 14.7333 3.9 19.9333 3.9 26C3.9 32.0667 6.06667 37.2667 10.4 41.6C14.7333 45.9333 19.9333 48.1 26 48.1Z" fill="#323238"/>
</svg>
